<!-- SpeedSize.com --><svg width="150" height="154" xmlns="http://www.w3.org/2000/svg"><g id="NEW-CAT-ICONS" stroke="none" stroke-width="1" fill="none" fill-rule="evenodd"><g id="A5" transform="translate(-448 -65)"><g id="Consumables" transform="translate(448 67)"><path id="Rectangle-Copy-2" fill-opacity="0" fill="#D8D8D8" d="M0 0h150v150H0z"/><g id="group-73" transform="translate(24)" fill="#414040" fill-rule="nonzero" stroke="#414040" stroke-width="3.75"><path d="M52.313 59.11a1.886 1.886 0 00-2.615 0c-.91.869-22.34 21.66-22.34 37.999a23.631 23.631 0 0011.68 20.877 23.628 23.628 0 0023.92 0A23.638 23.638 0 0074.63 97.109C74.63 81.252 53.218 60 52.313 59.11zM51 117c-11.009-.01-19.929-8.946-19.918-19.95 0-12.552 15.29-29.212 19.897-34.002 4.607 4.854 19.928 21.793 19.928 34.002a19.93 19.93 0 01-5.818 14.1A19.94 19.94 0 0151 117h0z" id="Shape"/><path d="M66.214 31.591v-11.93A4.681 4.681 0 0061.538 15h-.997V2.368A1.837 1.837 0 0060 1.002a1.883 1.883 0 00-1.371-.504H43.36a1.87 1.87 0 00-1.86 1.875V15h-1a4.683 4.683 0 00-4.682 4.682v12C30 33.868.22 49.382.22 135.6c0 7.79 5.871 13.902 13.36 13.902h74.84c7.489 0 13.36-6.065 13.36-13.902 0-86.662-29.968-101.893-35.571-104.009h.005zm-21-27.359H56.77V15H45.23l-.02-10.768h.005zm-5.721 15.429a.99.99 0 01.3-.697.925.925 0 01.712-.252h21a.997.997 0 011.002.949v11.651H39.51l-.01-11.651h-.006zm48.921 126.107H13.58c-5.4 0-9.632-4.468-9.632-10.168.054-86.668 30.82-99.6 33.52-100.602h27.134C67.36 36 98.052 49.002 98.052 135.59c0 5.711-4.232 10.179-9.632 10.179h-.006z" id="Shape"/></g></g></g></g></svg>