<!-- SpeedSize.com --><svg width="150" height="152" xmlns="http://www.w3.org/2000/svg"><g id="NEW-CAT-ICONS" stroke="none" stroke-width="1" fill="none" fill-rule="evenodd"><g id="A5" transform="translate(-623 -73)"><g id="Warranty" transform="translate(623 74)"><path id="Rectangle-Copy-3" fill-opacity="0" fill="#D8D8D8" d="M0 0h150v150H0z"/><g id="group-74" transform="translate(22)" fill="#414040" fill-rule="nonzero" stroke="#414040" stroke-width="2.679"><path d="M102.412 47.668h0l-6-4.2A3.786 3.786 0 0195.261 39l3-6.579a6.299 6.299 0 00-.07-5.86 6.206 6.206 0 00-5.004-3l-7.189-.563a3.79 3.79 0 01-3.257-3.246l-.621-7.222c-.279-3.417-2.69-5.812-5.872-5.812a7.009 7.009 0 00-2.898.734l-6.579 3a3.914 3.914 0 01-4.446-1.19l-4.238-5.93A6.01 6.01 0 0052.998.514a6.007 6.007 0 00-5.084 2.818L43.746 9.28a3.931 3.931 0 01-4.44 1.189L32.731 7.42a7.21 7.21 0 00-3-.691 5.93 5.93 0 00-5.871 5.801l-.632 7.232a3.79 3.79 0 01-3.23 3.236l-7.238.622a5.99 5.99 0 00-5.004 3.01 5.98 5.98 0 00-.075 5.84l3 6.578a3.835 3.835 0 01-1.178 4.382l-5.915 4.168a6.004 6.004 0 000 10.173l5.947 4.158a3.817 3.817 0 011.205 4.446l-3.053 6.627a6.004 6.004 0 00.09 5.823 5.993 5.993 0 004.993 3l7.233.627a3.841 3.841 0 013.257 3.257l.627 7.243a6.08 6.08 0 004.178 5.518v47.218a3.562 3.562 0 001.982 3.466 3.55 3.55 0 003.954-.563l18.83-14.24a.547.547 0 01.37 0L72 148.592c.707.552 1.57.868 2.47.9a3.597 3.597 0 001.489-.354 3.754 3.754 0 002.004-3.487V98.502A6.095 6.095 0 0082.13 93l.622-7.232a3.802 3.802 0 013.246-3.279l7.232-.621a5.983 5.983 0 005.025-3.01 5.996 5.996 0 00.065-5.856l-3-6.584a3.812 3.812 0 011.14-4.42l6-4.157a6.004 6.004 0 000-10.173h-.053.005zM72.696 142.58l-16.403-12.39a5.629 5.629 0 00-6.61 0l-16.437 12.428V97.875l6-2.818a3.894 3.894 0 014.436 1.19l4.179 5.908a6.016 6.016 0 005.089 2.818 6.016 6.016 0 005.09-2.818l4.156-6a3.883 3.883 0 014.468-1.151l6 2.823.032 44.759v-.006zM99.43 53.582l-6 4.157a8.998 8.998 0 00-2.925 10.923l3 6.58a.868.868 0 01-.83 1.456l-7.238.622a9.006 9.006 0 00-8.004 7.998l-.627 7.243c-.059.696-.289 1.001-.69 1.001a1.87 1.87 0 01-.761-.203l-6.579-3a9.152 9.152 0 00-10.779 2.92l-4.162 6c-.552.792-1.125.803-1.688 0l-4.162-6a8.984 8.984 0 00-7.318-3.708 8.547 8.547 0 00-3.59.788l-6.572 3a1.942 1.942 0 01-.772.204c-.396 0-.627-.354-.686-1.002l-.632-7.243a9.001 9.001 0 00-7.998-7.998l-7.237-.606a.842.842 0 01-.997-.418.86.86 0 01.14-1.001l3-6.579a9.008 9.008 0 00-2.91-10.912l-6-4.125a.876.876 0 01-.642-.842c0-.396.262-.739.643-.84l6-4.163a8.99 8.99 0 002.925-10.918l-3.14-6.632a1.272 1.272 0 01-.128-.996 1.243 1.243 0 011.001-.413l7.249-.61a8.991 8.991 0 007.998-7.999l.621-7.259c0-.696.3-1.002.691-1.002.268.011.53.08.772.199l6.568 3.053a9.15 9.15 0 0011.03-3l4.152-5.952c.557-.803 1.125-.803 1.687 0l4.163 6a9.13 9.13 0 0010.907 2.92l6.578-3.054c.242-.117.499-.182.761-.198.402 0 .632.343.702 1.002l.621 7.232a8.996 8.996 0 007.999 7.998l7.243.622c.374-.027.744.128.996.407a1.27 1.27 0 01-.15 1.002l-3.054 6.578a9.013 9.013 0 002.925 10.923l6 4.147c.327.177.563.487.649.852-.091.396-.37.728-.75.878v-.032z" id="Shape"/><path d="M70.05 36.107a3.242 3.242 0 00-2.941 1.355l-16.64 23.599-12.08-12.536a3.248 3.248 0 00-4.42.059 3.24 3.24 0 00-.251 4.414L48.52 68.362a3.294 3.294 0 002.34.997h.242a3.309 3.309 0 002.4-1.36l18.9-26.797a3.252 3.252 0 00.29-3.225 3.23 3.23 0 00-2.642-1.864h0v-.006z" id="Path"/></g></g></g></g></svg>