<!-- SpeedSize.com --><svg width="150" height="152" xmlns="http://www.w3.org/2000/svg"><g id="NEW-CAT-ICONS" stroke="none" stroke-width="1" fill="none" fill-rule="evenodd"><g id="A5" transform="translate(-192 -424)"><g id="Top-Brands" transform="translate(192 425)"><path id="Rectangle-Copy-8" fill-opacity="0" fill="#D8D8D8" d="M0 0h150v150H0z"/><g id="group-77" transform="translate(18)"><path d="M102.118 6.643H11.882a5.105 5.105 0 00-5.121 5.105v126.504c0 1.355.535 2.657 1.5 3.616a5.125 5.125 0 003.621 1.495h90.236a5.1 5.1 0 003.621-1.5 5.074 5.074 0 001.5-3.611V11.748a5.095 5.095 0 00-1.5-3.616 5.125 5.125 0 00-3.621-1.494v.005zM27.54 56.753A3.074 3.074 0 0130 54.665l16.752-2.432 7.5-15.177A3.06 3.06 0 0157 35.352a3.06 3.06 0 012.748 1.703l7.49 15.177L84 54.664a3.078 3.078 0 011.709 5.24L73.59 71.764l2.86 16.693c.14.89-.117 1.8-.712 2.48a3.04 3.04 0 01-2.357 1.056v-.048A3.07 3.07 0 0172 91.634l-15-7.87-15 7.875a3.058 3.058 0 01-3.241-.225 3.06 3.06 0 01-1.221-3.01l2.86-16.64-12.08-11.86a3.058 3.058 0 01-.777-3.15zm70.072 58.002h-80.47a3.07 3.07 0 110-6.14l80.464.001a3.07 3.07 0 110 6.14h.005z" id="Shape"/><path d="M46.763 71.17l-2.004 12.15 10.912-5.738A3.185 3.185 0 0157 77.23c.493 0 .98.117 1.42.353l10.875 5.738-2.004-12.15a3.057 3.057 0 01.82-2.711l8.807-8.598-12.14-1.779a3.055 3.055 0 01-2.303-1.65L57 45.348l-5.438 11.084a3.09 3.09 0 01-2.303 1.677L37.06 59.86l8.818 8.598a3.073 3.073 0 01.884 2.71z" id="Path"/><path d="M110.079 3.788a11.31 11.31 0 00-7.999-3.29H11.882C5.668.498.632 5.534.632 11.748v126.504c0 6.214 5.036 11.25 11.25 11.25h90.257c2.984 0 5.84-1.19 7.945-3.3a11.235 11.235 0 003.284-7.95V11.748c0-2.984-1.179-5.844-3.29-7.96zm-2.84 134.464a5.095 5.095 0 01-1.5 3.616 5.125 5.125 0 01-3.621 1.495H11.882a5.099 5.099 0 01-3.621-1.5 5.074 5.074 0 01-1.5-3.611V11.748c0-1.355.535-2.657 1.5-3.616a5.125 5.125 0 013.621-1.494h90.236c1.36 0 2.662.535 3.621 1.5a5.074 5.074 0 011.5 3.61v126.504h0z" id="Shape" stroke="#414040" stroke-width="2.679" fill="#414040" fill-rule="nonzero"/><path d="M97.607 108.59H17.154a3.07 3.07 0 100 6.14l80.464-.001a3.07 3.07 0 100-6.14h-.01zM40.441 71.77l-2.86 16.639a3.06 3.06 0 001.21 2.984 3.07 3.07 0 003.209.246l15-7.87 15 7.876c.44.225.927.343 1.42.343v.054a3.059 3.059 0 002.378-1.072 3.08 3.08 0 00.697-2.507L73.59 71.77l12.123-11.861a3.078 3.078 0 00.761-3.15 3.068 3.068 0 00-2.48-2.09l-16.741-2.431-7.49-15.177a3.071 3.071 0 00-5.502 0l-7.494 15.171L30 54.664a3.07 3.07 0 00-2.48 2.09 3.082 3.082 0 00.782 3.15l12.14 11.86v.006zm8.818-13.661a3.09 3.09 0 002.303-1.677L57 45.348l5.448 11.084a3.072 3.072 0 002.315 1.65l12.16 1.779-8.812 8.598a3.072 3.072 0 00-.82 2.71l1.998 12.15-10.81-5.737a2.967 2.967 0 00-1.42-.353h0c-.482.01-.959.133-1.393.353L44.721 83.32l1.999-12.15a3.074 3.074 0 00-.879-2.711l-8.823-8.598 12.24-1.752h0z" id="Shape" stroke="#414040" stroke-width="2.679" fill="#414040" fill-rule="nonzero"/></g></g></g></g></svg>