<!-- SpeedSize.com --><svg width="150" height="152" xmlns="http://www.w3.org/2000/svg"><g fill="none" fill-rule="evenodd"><path d="M0 1h150v150H0z"/><path d="M105.438 9.609l-4.099-4.8a10 10 0 00-7.446-3.311H56.264a9.807 9.807 0 00-7.446 3.31l-4.302 4.8c-30.3 33.483-41.362 80.15-29.303 123.67A10 10 0 0025 140.57h8.271v6.621a3.324 3.324 0 003.316 3.14 3.32 3.32 0 003.311-3.14v-6.621h70.2v6.621a3.32 3.32 0 001.602 3.016 3.307 3.307 0 005.009-3.016v-6.621h8.293c4.5-.038 8.448-2.99 9.76-7.286A131.45 131.45 0 00105.437 9.609h0zm-56 4.311l4.302-4.8a3.357 3.357 0 012.491-1.001H93.68a2.999 2.999 0 012.48 1.151l4.312 4.8a129.203 129.203 0 0125.999 44.54c-8.111 3.648-18.37 6.3-29.625 7.789V56.141C96.34 44.532 86.789 35.382 75.17 35.382c-11.615 0-21.172 9.15-21.67 20.76v10.087c-11.282-1.49-21.498-4.125-29.71-7.779a123.18 123.18 0 0125.692-44.529h-.043zM75 67.73c-5.117 0-10.11-.177-15.07-.67V56.14c.214-8.17 6.894-14.678 15.064-14.678 8.175 0 14.855 6.508 15.07 14.678v10.92c-4.993.493-9.954.67-15.065.67zm15.053 6v37.125a3.332 3.332 0 01-3.31 3.321H63.18a3.324 3.324 0 01-3.267-3.321V73.69c4.998.488 9.926.648 15.07.648 5.142 0 10.087-.16 15.015-.648l.054.038h0zm38.24 57.782a3.214 3.214 0 01-3.3 2.464H24.817a3.515 3.515 0 01-3.322-2.464 125.162 125.162 0 010-66.724 118.272 118.272 0 0031.624 8.111v37.88a10.027 10.027 0 002.984 7.072 10.03 10.03 0 007.114 2.871h23.357c5.48-.01 9.954-4.392 10.087-9.873V73c11.92-1.49 22.849-4.302 31.618-8.11a124.57 124.57 0 010 66.562l.011.053v.006z" fill="#414040" fill-rule="nonzero" stroke="#414040" stroke-width="1.5"/></g></svg>