<!-- SpeedSize.com --><svg width="152" height="150" xmlns="http://www.w3.org/2000/svg"><g fill="none" fill-rule="evenodd"><g><g><path d="M1 0h150v150H1z"/><g transform="translate(1 16)" fill="#414040" fill-rule="nonzero"><path d="M144.536 18.61a16.002 16.002 0 00-11.754-4.997H109.27v-.284a12.747 12.747 0 00-3.82-9.21A13.006 13.006 0 0096.236.3H53.754C46.52.258 40.629 6.076 40.575 13.303v.278H17.218A15.994 15.994 0 005.464 18.58 16.84 16.84 0 00.465 30.337v70.543a16 16 0 005 11.786 16.82 16.82 0 0011.753 5.004h115.57c4.44.032 8.7-1.779 11.758-4.999a16.872 16.872 0 005-11.759v-70.51a16.011 16.011 0 00-5-11.791h-.01zm-2.427 82.286h-.107a9.214 9.214 0 01-2.69 6.525 9.191 9.191 0 01-6.525 2.69H17.212a9.206 9.206 0 01-6.52-2.695 9.226 9.226 0 01-2.694-6.514V30.359c0-2.443.965-4.784 2.695-6.509a9.187 9.187 0 016.509-2.7H44.55a3.805 3.805 0 003.846-3.809v-4.109A5.327 5.327 0 0153.93 7.71h42.322a5.304 5.304 0 013.986 1.543 5.307 5.307 0 011.564 3.98v4.11a3.79 3.79 0 001.12 2.704 3.804 3.804 0 002.71 1.115h27.37c5.068.021 9.16 4.14 9.15 9.214l-.043 70.527v-.006z" stroke="#414040"/><path d="M75 30.788c-16.607.005-30.905 11.742-34.146 28.028-3.236 16.291 5.48 32.604 20.823 38.963 15.343 6.359 33.043.99 42.278-12.815 9.23-13.81 7.425-32.212-4.317-43.966A34.835 34.835 0 0075 30.788zm19.259 54.214a27.205 27.205 0 01-29.663 5.925A27.19 27.19 0 0147.802 65.77a27.661 27.661 0 017.928-19.26A27.122 27.122 0 0175 38.583a27.662 27.662 0 0119.259 7.929 27.087 27.087 0 017.928 19.259 26.548 26.548 0 01-7.928 19.232z" stroke="#414040"/><circle cx="125.411" cy="37.591" r="6.938"/></g></g></g></g></svg>