<!-- SpeedSize.com --><svg width="152" height="152" xmlns="http://www.w3.org/2000/svg"><g fill="none" fill-rule="evenodd"><g><g><path d="M1 1h150v150H1z"/><g fill="#414040" fill-rule="nonzero" stroke="#414040" stroke-width="2.679"><path d="M58.621 103.279H48.69v-9.922a2.49 2.49 0 00-2.49-2.49h-9.917a2.493 2.493 0 00-2.49 2.49v9.927H23.87a2.48 2.48 0 00-1.758.723 2.469 2.469 0 00-.733 1.757v9.932a2.49 2.49 0 002.49 2.492h9.922v9.996a2.49 2.49 0 002.491 2.491h9.916c.664 0 1.297-.257 1.768-.729a2.462 2.462 0 00.723-1.762v-9.916h9.932a2.495 2.495 0 002.481-2.491v-9.938a2.476 2.476 0 00-.713-1.784 2.456 2.456 0 00-1.768-.75v-.026h0zm-2.48 9.932h-9.943a2.472 2.472 0 00-2.464 2.48v9.927H38.73v-9.922a2.492 2.492 0 00-2.48-2.48h-9.948v-4.998h9.927a2.489 2.489 0 002.48-2.48v-9.954h5.003v9.932a2.478 2.478 0 002.465 2.48h9.943l.021 5.02v-.005z"/><path d="M150.25 106.188c-1.912-17.058-18-33.118-35.121-34.93a39.801 39.801 0 00-4.377-.245h-27.31V61.08h-5.004v-4.998a9.923 9.923 0 00-2.893-7.028 9.94 9.94 0 00-7.024-2.915h-12.38a4.996 4.996 0 01-4.853-2.277 5.001 5.001 0 014.853-7.644h39.707a9.926 9.926 0 008.872-4.875 9.928 9.928 0 000-10.12 9.954 9.954 0 00-8.872-4.875H83.446a5.001 5.001 0 01-5.003-4.998V1.498h-4.897v9.932c0 5.48 4.441 9.927 9.922 9.933h12.386a4.997 4.997 0 014.821 7.633 5.007 5.007 0 01-4.821 2.293H56.146a9.947 9.947 0 00-8.978 4.832 9.941 9.941 0 008.978 15.027h12.408a5.002 5.002 0 015.003 5.004v4.998h-5.003v9.932H41.237a37.29 37.29 0 00-4.376.198C19.718 73.091 3.668 89.098 1.739 106.21a39.72 39.72 0 0018.21 38.073 39.731 39.731 0 0042.203.21 24.373 24.373 0 0110.896-3.858 38.412 38.412 0 015.77 0 24.5 24.5 0 0111.003 3.895 39.722 39.722 0 0042.23-.215 39.712 39.712 0 0018.167-38.126h.032zM73.552 66.052h4.998v4.998h-4.998v-4.998zm63.128 67.859c-11.223 12.546-29.828 15.24-44.148 6.39a29.163 29.163 0 00-13.323-4.622c-.996-.08-2.11-.118-3.172-.118a26.935 26.935 0 00-3.358.139 29.08 29.08 0 00-13.12 4.57 34.748 34.748 0 01-36.89-.225A34.765 34.765 0 016.76 106.76C8.35 92 22.669 77.779 37.39 76.188c1.28-.124 2.56-.188 3.846-.188h69.515c1.285 0 2.571.07 3.846.198 14.722 1.591 29.052 15.873 30.68 30.573a34.51 34.51 0 01-8.624 27.161l.026-.021z"/><path d="M110.752 85.9a9.931 9.931 0 00-9.932 9.932c0 5.48 4.446 9.927 9.932 9.927 5.48 0 9.927-4.447 9.927-9.927a9.91 9.91 0 00-9.927-9.932zm0 14.898a5.001 5.001 0 01-5.004-4.998 5.001 5.001 0 118.54 3.536 5.004 5.004 0 01-3.536 1.462h0zm0 14.893c-5.486 0-9.932 4.447-9.932 9.927a9.931 9.931 0 009.932 9.932c5.48 0 9.927-4.446 9.927-9.932a9.889 9.889 0 00-2.904-7.023 9.898 9.898 0 00-7.023-2.904zm0 14.898a4.995 4.995 0 01-4.923-4.001 4.996 4.996 0 012.967-5.61 5.006 5.006 0 016.08 1.817 5.01 5.01 0 01-.594 6.316 4.926 4.926 0 01-3.536 1.478h.006zm-17.384-29.785a9.914 9.914 0 00-9.734 7.976 9.914 9.914 0 005.93 11.106 9.925 9.925 0 0012.049-3.66 9.923 9.923 0 00-8.245-15.428v.006zm0 14.887a5.002 5.002 0 01-4.86-4.066 5 5 0 013.028-5.571 5.004 5.004 0 015.405 8.185 4.977 4.977 0 01-3.573 1.447v.005zm34.8-14.887a9.914 9.914 0 00-9.734 7.976 9.914 9.914 0 005.93 11.106 9.925 9.925 0 0012.048-3.66 9.923 9.923 0 00-1.242-12.524 9.97 9.97 0 00-7.002-2.904h0v.006zm0 14.887a4.999 4.999 0 01-1.854-9.627 4.998 4.998 0 015.427 8.165 4.992 4.992 0 01-3.573 1.462h0z"/></g></g></g></g></svg>